<svg viewBox="0 0 1900 1200" xmlns="http://www.w3.org/2000/svg">
<defs>
      <marker id="arrow" markerWidth="10" markerHeight="10" refX="8" refY="4" orient="auto">
        <path d="M0,0 L9,4 L0,8 Z" fill="#1A1A2E"/>
      </marker>
      <marker id="arrow-gray" markerWidth="10" markerHeight="10" refX="8" refY="4" orient="auto">
        <path d="M0,0 L9,4 L0,8 Z" fill="#9AA0AE"/>
      </marker>
      <marker id="arrow-amber" markerWidth="10" markerHeight="10" refX="8" refY="4" orient="auto">
        <path d="M0,0 L9,4 L0,8 Z" fill="#C98A2E"/>
      </marker>
    </defs>
<rect x="0" y="0" width="1900" height="1200" rx="0" fill="#FFFFFF"  stroke="none" stroke-width="0" />
<text x="950.0" y="42" font-family="Arial, Helvetica, sans-serif" font-size="28" font-weight="800" fill="#1A1A2E" text-anchor="middle" letter-spacing="0.3px">EKART-CICD — AWS INFRASTRUCTURE</text>
<text x="950.0" y="68" font-family="Arial, Helvetica, sans-serif" font-size="14" font-weight="600" fill="#6B7280" text-anchor="middle" letter-spacing="0.3px">Terraform bootstrap + main infrastructure, provisioned in ap-south-1</text>
<text x="950.0" y="88" font-family="Arial, Helvetica, sans-serif" font-size="12.5" font-weight="600" fill="#9AA0AE" text-anchor="middle" letter-spacing="0.3px">by Manjunatha C  ·  linkedin.com/in/manjunatha-c1  ·  github.com/manjunatha09</text>
<rect x="60" y="118" width="430" height="210" rx="12" fill="#F8F9FC"  stroke="#C7CEDD" stroke-width="2" stroke-dasharray="6 5"/>
<text x="80" y="142" font-family="Arial, Helvetica, sans-serif" font-size="12.5" font-weight="800" fill="#9AA0AE" text-anchor="start" letter-spacing="0.3px">TERRAFORM BOOTSTRAP  (run once, first)</text>
<circle cx="160" cy="208" r="38" fill="#000000" fill-opacity="0.1" stroke="none" stroke-width="0"/>
<circle cx="160" cy="205" r="38" fill="#FFFFFF"  stroke="none" stroke-width="0"/>
<circle cx="160" cy="205" r="34" fill="url(#grad_27AE60)"  stroke="none" stroke-width="0"/>
<circle cx="160" cy="205" r="34" fill="none"  stroke="#FFFFFF" stroke-width="2"/>
<circle cx="160" cy="205" r="38" fill="none"  stroke="#27AE60" stroke-width="3"/>
<polygon points="144,191 176,191 171,221 149,221" fill="none" stroke="#FFFFFF" stroke-width="4"/>
<path d="M 144 191 Q 160 181 176 191" stroke="#FFFFFF" stroke-width="3.5" fill="none"/>
<text x="160" y="265.0" font-family="Arial, Helvetica, sans-serif" font-size="13" font-weight="700" fill="#1A1A2E" text-anchor="middle" letter-spacing="0.3px">S3 STATE</text>
<text x="160" y="281.5" font-family="Arial, Helvetica, sans-serif" font-size="13" font-weight="700" fill="#1A1A2E" text-anchor="middle" letter-spacing="0.3px">BUCKET</text>
<circle cx="360" cy="208" r="38" fill="#000000" fill-opacity="0.1" stroke="none" stroke-width="0"/>
<circle cx="360" cy="205" r="38" fill="#FFFFFF"  stroke="none" stroke-width="0"/>
<circle cx="360" cy="205" r="34" fill="url(#grad_7C5CFF)"  stroke="none" stroke-width="0"/>
<circle cx="360" cy="205" r="34" fill="none"  stroke="#FFFFFF" stroke-width="2"/>
<circle cx="360" cy="205" r="38" fill="none"  stroke="#7C5CFF" stroke-width="3"/>
<line x1="344" y1="191" x2="376" y2="191" stroke="#FFFFFF" stroke-width="3"/>
<line x1="344" y1="201" x2="376" y2="201" stroke="#FFFFFF" stroke-width="3"/>
<line x1="344" y1="211" x2="376" y2="211" stroke="#FFFFFF" stroke-width="3"/>
<rect x="344" y="187" width="32" height="34" fill="none" stroke="#FFFFFF" stroke-width="3" rx="3"/>
<circle cx="378" cy="221" r="9" fill="#FFFFFF"  stroke="none" stroke-width="0"/>
<rect x="372" y="218" width="12" height="10" fill="#FFFFFF" rx="2"/>
<path d="M 374 218 v-4 a4 4 0 0 1 8 0 v4" stroke="#FFFFFF" stroke-width="2.5" fill="none"/>
<text x="360" y="265.0" font-family="Arial, Helvetica, sans-serif" font-size="13" font-weight="700" fill="#1A1A2E" text-anchor="middle" letter-spacing="0.3px">DYNAMODB</text>
<text x="360" y="281.5" font-family="Arial, Helvetica, sans-serif" font-size="13" font-weight="700" fill="#1A1A2E" text-anchor="middle" letter-spacing="0.3px">LOCK TABLE</text>
<path d="M 203 205 L 317 205" stroke="#9AA0AE" stroke-width="2" fill="none"  marker-end="url(#arrow-gray)"/>
<rect x="1410" y="118" width="430" height="210" rx="12" fill="#F8F9FC"  stroke="#C7CEDD" stroke-width="2" stroke-dasharray="6 5"/>
<text x="1430" y="142" font-family="Arial, Helvetica, sans-serif" font-size="12.5" font-weight="800" fill="#9AA0AE" text-anchor="start" letter-spacing="0.3px">IAM  (account-level, outside VPC)</text>
<circle cx="1625" cy="208" r="38" fill="#000000" fill-opacity="0.1" stroke="none" stroke-width="0"/>
<circle cx="1625" cy="205" r="38" fill="#FFFFFF"  stroke="none" stroke-width="0"/>
<circle cx="1625" cy="205" r="34" fill="url(#grad_E0A315)"  stroke="none" stroke-width="0"/>
<circle cx="1625" cy="205" r="34" fill="none"  stroke="#FFFFFF" stroke-width="2"/>
<circle cx="1625" cy="205" r="38" fill="none"  stroke="#E0A315" stroke-width="3"/>
<path d="M 1625 185 L 1641 193 L 1641 211 Q 1641 225 1625 229 Q 1609 225 1609 211 L 1609 193 Z" fill="none" stroke="#FFFFFF" stroke-width="3.5"/>
<circle cx="1621" cy="203" r="5" fill="#FFFFFF"  stroke="none" stroke-width="0"/>
<line x1="1625" y1="207" x2="1634" y2="216" stroke="#FFFFFF" stroke-width="3"/>
<text x="1625" y="265.0" font-family="Arial, Helvetica, sans-serif" font-size="13" font-weight="700" fill="#1A1A2E" text-anchor="middle" letter-spacing="0.3px">IAM ROLE +</text>
<text x="1625" y="281.5" font-family="Arial, Helvetica, sans-serif" font-size="13" font-weight="700" fill="#1A1A2E" text-anchor="middle" letter-spacing="0.3px">INSTANCE PROFILE</text>
<text x="1625" y="302" font-family="Arial, Helvetica, sans-serif" font-size="10" font-weight="600" fill="#9AA0AE" text-anchor="middle" letter-spacing="0.3px">scoped to ssm:GetParameter/PutParameter</text>
<text x="1625" y="316" font-family="Arial, Helvetica, sans-serif" font-size="10" font-weight="600" fill="#9AA0AE" text-anchor="middle" letter-spacing="0.3px">on /ekart-cicd/k8s-join-command only</text>
<path d="M 300 253 L 300 350 L 950 350 L 950 385" stroke="#9AA0AE" stroke-width="2" fill="none" stroke-dasharray="8 6" marker-end="url(#arrow-gray)"/>
<rect x="472.6" y="352" width="294.8" height="20" rx="0" fill="#FFFFFF"  stroke="none" stroke-width="0" />
<text x="620" y="367" font-family="Arial, Helvetica, sans-serif" font-size="12" font-weight="700" fill="#9AA0AE" text-anchor="middle" letter-spacing="0.3px">remote state backend (S3 + DynamoDB lock)</text>
<circle cx="950" cy="263" r="34" fill="#000000" fill-opacity="0.1" stroke="none" stroke-width="0"/>
<circle cx="950" cy="260" r="34" fill="#FFFFFF"  stroke="none" stroke-width="0"/>
<circle cx="950" cy="260" r="30" fill="url(#grad_64748B)"  stroke="none" stroke-width="0"/>
<circle cx="950" cy="260" r="30" fill="none"  stroke="#FFFFFF" stroke-width="2"/>
<circle cx="950" cy="260" r="34" fill="none"  stroke="#64748B" stroke-width="3"/>
<path d="M 926 270 a12 12 0 0 1 2 -23.8 a15 15 0 0 1 29 -3 a11 11 0 0 1 3 26.8 Z" fill="none" stroke="#FFFFFF" stroke-width="3.5"/>
<text x="950" y="316.0" font-family="Arial, Helvetica, sans-serif" font-size="13" font-weight="700" fill="#1A1A2E" text-anchor="middle" letter-spacing="0.3px">INTERNET</text>
<path d="M 950 294 L 950 385" stroke="#1A1A2E" stroke-width="2.5" fill="none"  marker-end="url(#arrow)"/>
<rect x="90" y="385" width="1720" height="740" rx="16" fill="none"  stroke="#3B4A6B" stroke-width="2.5" stroke-dasharray="9 6"/>
<text x="115" y="412" font-family="Arial, Helvetica, sans-serif" font-size="14" font-weight="800" fill="#3B4A6B" text-anchor="start" letter-spacing="0.3px">VPC  10.0.0.0/16  —  ap-south-1</text>
<circle cx="950" cy="463" r="34" fill="#000000" fill-opacity="0.1" stroke="none" stroke-width="0"/>
<circle cx="950" cy="460" r="34" fill="#FFFFFF"  stroke="none" stroke-width="0"/>
<circle cx="950" cy="460" r="30" fill="url(#grad_F2994A)"  stroke="none" stroke-width="0"/>
<circle cx="950" cy="460" r="30" fill="none"  stroke="#FFFFFF" stroke-width="2"/>
<circle cx="950" cy="460" r="34" fill="none"  stroke="#F2994A" stroke-width="3"/>
<line x1="934" y1="444" x2="934" y2="476" stroke="#FFFFFF" stroke-width="4"/>
<line x1="966" y1="444" x2="966" y2="476" stroke="#FFFFFF" stroke-width="4"/>
<path d="M 934 460 L 960 460" stroke="#FFFFFF" stroke-width="3.5"/>
<path d="M 954 453 l 8 7 l -8 7" stroke="#FFFFFF" stroke-width="3.5" fill="none" stroke-linecap="round" stroke-linejoin="round"/>
<text x="950" y="516.0" font-family="Arial, Helvetica, sans-serif" font-size="13" font-weight="700" fill="#1A1A2E" text-anchor="middle" letter-spacing="0.3px">INTERNET GATEWAY</text>
<path d="M 950 494 L 950 540" stroke="#1A1A2E" stroke-width="2.5" fill="none"  marker-end="url(#arrow)"/>
<rect x="130" y="540" width="1640" height="560" rx="14" fill="#F8F9FC"  stroke="#8FA0C7" stroke-width="2" />
<text x="155" y="568" font-family="Arial, Helvetica, sans-serif" font-size="13" font-weight="800" fill="#5A6B8C" text-anchor="start" letter-spacing="0.3px">PUBLIC SUBNET  10.0.1.0/24</text>
<rect x="1560" y="550" width="190" height="40" rx="8" fill="#FFFFFF"  stroke="#8FA0C7" stroke-width="1.5" />
<text x="1655" y="575" font-family="Arial, Helvetica, sans-serif" font-size="10.5" font-weight="700" fill="#5A6B8C" text-anchor="middle" letter-spacing="0.3px">Route Table: 0.0.0.0/0 → IGW</text>
<circle cx="950" cy="623" r="40" fill="#000000" fill-opacity="0.1" stroke="none" stroke-width="0"/>
<circle cx="950" cy="620" r="40" fill="#FFFFFF"  stroke="none" stroke-width="0"/>
<circle cx="950" cy="620" r="36" fill="url(#grad_EB5C8D)"  stroke="none" stroke-width="0"/>
<circle cx="950" cy="620" r="36" fill="none"  stroke="#FFFFFF" stroke-width="2"/>
<circle cx="950" cy="620" r="40" fill="none"  stroke="#EB5C8D" stroke-width="3"/>
<line x1="934" y1="620" x2="952" y2="620" stroke="#FFFFFF" stroke-width="4"/>
<line x1="952" y1="620" x2="968" y2="606" stroke="#FFFFFF" stroke-width="4"/>
<line x1="952" y1="620" x2="968" y2="634" stroke="#FFFFFF" stroke-width="4"/>
<circle cx="934" cy="620" r="4.5" fill="#FFFFFF"  stroke="none" stroke-width="0"/>
<circle cx="968" cy="606" r="4.5" fill="#FFFFFF"  stroke="none" stroke-width="0"/>
<circle cx="968" cy="634" r="4.5" fill="#FFFFFF"  stroke="none" stroke-width="0"/>
<text x="950" y="682.0" font-family="Arial, Helvetica, sans-serif" font-size="13" font-weight="700" fill="#1A1A2E" text-anchor="middle" letter-spacing="0.3px">NETWORK LOAD</text>
<text x="950" y="698.5" font-family="Arial, Helvetica, sans-serif" font-size="13" font-weight="700" fill="#1A1A2E" text-anchor="middle" letter-spacing="0.3px">BALANCER  :80</text>
<path d="M 950 494 L 950 580" stroke="#1A1A2E" stroke-width="2.5" fill="none"  marker-end="url(#arrow)"/>
<rect x="150.0" y="738.0" width="260" height="130" rx="10" fill="#000000" fill-opacity="0.08"/>
<rect x="150.0" y="735.0" width="260" height="130" rx="10" fill="#FFFFFF"  stroke="#F2994A" stroke-width="3" />
<rect x="150.0" y="735.0" width="260" height="130" rx="10" fill="#F2994A" fill-opacity="0.06" stroke="none" stroke-width="0" />
<rect x="158.0" y="737.0" width="40" height="12" rx="2" fill="#FFFFFF"  stroke="#F2994A" stroke-width="2.5" />
<circle cx="190.0" cy="743.0" r="2.2" fill="#F2994A"  stroke="none" stroke-width="0"/>
<rect x="158.0" y="753.0" width="40" height="12" rx="2" fill="#FFFFFF"  stroke="#F2994A" stroke-width="2.5" />
<circle cx="190.0" cy="759.0" r="2.2" fill="#F2994A"  stroke="none" stroke-width="0"/>
<rect x="158.0" y="769.0" width="40" height="12" rx="2" fill="#FFFFFF"  stroke="#F2994A" stroke-width="2.5" />
<circle cx="190.0" cy="775.0" r="2.2" fill="#F2994A"  stroke="none" stroke-width="0"/>
<text x="280" y="757.0" font-family="Arial, Helvetica, sans-serif" font-size="13.5" font-weight="800" fill="#1A1A2E" text-anchor="middle" letter-spacing="0.3px">JENKINS</text>
<text x="280" y="802" font-family="Arial, Helvetica, sans-serif" font-size="11" font-weight="600" fill="#6B7280" text-anchor="middle" letter-spacing="0.3px">m7i-flex.large · 30 GB</text>
<text x="280" y="818" font-family="Arial, Helvetica, sans-serif" font-size="10.5" font-weight="600" fill="#6B7280" text-anchor="middle" letter-spacing="0.3px">22 (0.0.0.0/0) · 8080 public</text>
<rect x="470.0" y="738.0" width="260" height="130" rx="10" fill="#000000" fill-opacity="0.08"/>
<rect x="470.0" y="735.0" width="260" height="130" rx="10" fill="#FFFFFF"  stroke="#17A2B8" stroke-width="3" />
<rect x="470.0" y="735.0" width="260" height="130" rx="10" fill="#17A2B8" fill-opacity="0.06" stroke="none" stroke-width="0" />
<rect x="478.0" y="737.0" width="40" height="12" rx="2" fill="#FFFFFF"  stroke="#17A2B8" stroke-width="2.5" />
<circle cx="510.0" cy="743.0" r="2.2" fill="#17A2B8"  stroke="none" stroke-width="0"/>
<rect x="478.0" y="753.0" width="40" height="12" rx="2" fill="#FFFFFF"  stroke="#17A2B8" stroke-width="2.5" />
<circle cx="510.0" cy="759.0" r="2.2" fill="#17A2B8"  stroke="none" stroke-width="0"/>
<rect x="478.0" y="769.0" width="40" height="12" rx="2" fill="#FFFFFF"  stroke="#17A2B8" stroke-width="2.5" />
<circle cx="510.0" cy="775.0" r="2.2" fill="#17A2B8"  stroke="none" stroke-width="0"/>
<text x="600" y="757.0" font-family="Arial, Helvetica, sans-serif" font-size="13.5" font-weight="800" fill="#1A1A2E" text-anchor="middle" letter-spacing="0.3px">SONARQUBE</text>
<text x="600" y="802" font-family="Arial, Helvetica, sans-serif" font-size="11" font-weight="600" fill="#6B7280" text-anchor="middle" letter-spacing="0.3px">m7i-flex.large · 30 GB</text>
<text x="600" y="818" font-family="Arial, Helvetica, sans-serif" font-size="10.5" font-weight="600" fill="#6B7280" text-anchor="middle" letter-spacing="0.3px">22 (0.0.0.0/0) · 9000 public</text>
<rect x="820.0" y="738.0" width="260" height="130" rx="10" fill="#000000" fill-opacity="0.08"/>
<rect x="820.0" y="735.0" width="260" height="130" rx="10" fill="#FFFFFF"  stroke="#7C5CFF" stroke-width="3" />
<rect x="820.0" y="735.0" width="260" height="130" rx="10" fill="#7C5CFF" fill-opacity="0.06" stroke="none" stroke-width="0" />
<rect x="828.0" y="737.0" width="40" height="12" rx="2" fill="#FFFFFF"  stroke="#7C5CFF" stroke-width="2.5" />
<circle cx="860.0" cy="743.0" r="2.2" fill="#7C5CFF"  stroke="none" stroke-width="0"/>
<rect x="828.0" y="753.0" width="40" height="12" rx="2" fill="#FFFFFF"  stroke="#7C5CFF" stroke-width="2.5" />
<circle cx="860.0" cy="759.0" r="2.2" fill="#7C5CFF"  stroke="none" stroke-width="0"/>
<rect x="828.0" y="769.0" width="40" height="12" rx="2" fill="#FFFFFF"  stroke="#7C5CFF" stroke-width="2.5" />
<circle cx="860.0" cy="775.0" r="2.2" fill="#7C5CFF"  stroke="none" stroke-width="0"/>
<text x="950" y="757.0" font-family="Arial, Helvetica, sans-serif" font-size="13.5" font-weight="800" fill="#1A1A2E" text-anchor="middle" letter-spacing="0.3px">K8S CONTROL PLANE</text>
<text x="950" y="802" font-family="Arial, Helvetica, sans-serif" font-size="11" font-weight="600" fill="#6B7280" text-anchor="middle" letter-spacing="0.3px">kubeadm · containerd · Calico</text>
<text x="950" y="818" font-family="Arial, Helvetica, sans-serif" font-size="10.5" font-weight="600" fill="#6B7280" text-anchor="middle" letter-spacing="0.3px">22 (0.0.0.0/0) · API :6443</text>
<rect x="1170.0" y="738.0" width="260" height="130" rx="10" fill="#000000" fill-opacity="0.08"/>
<rect x="1170.0" y="735.0" width="260" height="130" rx="10" fill="#FFFFFF"  stroke="#7C5CFF" stroke-width="3" />
<rect x="1170.0" y="735.0" width="260" height="130" rx="10" fill="#7C5CFF" fill-opacity="0.06" stroke="none" stroke-width="0" />
<rect x="1178.0" y="737.0" width="40" height="12" rx="2" fill="#FFFFFF"  stroke="#7C5CFF" stroke-width="2.5" />
<circle cx="1210.0" cy="743.0" r="2.2" fill="#7C5CFF"  stroke="none" stroke-width="0"/>
<rect x="1178.0" y="753.0" width="40" height="12" rx="2" fill="#FFFFFF"  stroke="#7C5CFF" stroke-width="2.5" />
<circle cx="1210.0" cy="759.0" r="2.2" fill="#7C5CFF"  stroke="none" stroke-width="0"/>
<rect x="1178.0" y="769.0" width="40" height="12" rx="2" fill="#FFFFFF"  stroke="#7C5CFF" stroke-width="2.5" />
<circle cx="1210.0" cy="775.0" r="2.2" fill="#7C5CFF"  stroke="none" stroke-width="0"/>
<text x="1300" y="757.0" font-family="Arial, Helvetica, sans-serif" font-size="13.5" font-weight="800" fill="#1A1A2E" text-anchor="middle" letter-spacing="0.3px">K8S WORKER 1</text>
<text x="1300" y="802" font-family="Arial, Helvetica, sans-serif" font-size="11" font-weight="600" fill="#6B7280" text-anchor="middle" letter-spacing="0.3px">20 GB disk · Ekart pod</text>
<text x="1300" y="818" font-family="Arial, Helvetica, sans-serif" font-size="10.5" font-weight="600" fill="#6B7280" text-anchor="middle" letter-spacing="0.3px">NodePort 30000-33000</text>
<rect x="1490.0" y="738.0" width="260" height="130" rx="10" fill="#000000" fill-opacity="0.08"/>
<rect x="1490.0" y="735.0" width="260" height="130" rx="10" fill="#FFFFFF"  stroke="#7C5CFF" stroke-width="3" />
<rect x="1490.0" y="735.0" width="260" height="130" rx="10" fill="#7C5CFF" fill-opacity="0.06" stroke="none" stroke-width="0" />
<rect x="1498.0" y="737.0" width="40" height="12" rx="2" fill="#FFFFFF"  stroke="#7C5CFF" stroke-width="2.5" />
<circle cx="1530.0" cy="743.0" r="2.2" fill="#7C5CFF"  stroke="none" stroke-width="0"/>
<rect x="1498.0" y="753.0" width="40" height="12" rx="2" fill="#FFFFFF"  stroke="#7C5CFF" stroke-width="2.5" />
<circle cx="1530.0" cy="759.0" r="2.2" fill="#7C5CFF"  stroke="none" stroke-width="0"/>
<rect x="1498.0" y="769.0" width="40" height="12" rx="2" fill="#FFFFFF"  stroke="#7C5CFF" stroke-width="2.5" />
<circle cx="1530.0" cy="775.0" r="2.2" fill="#7C5CFF"  stroke="none" stroke-width="0"/>
<text x="1620" y="757.0" font-family="Arial, Helvetica, sans-serif" font-size="13.5" font-weight="800" fill="#1A1A2E" text-anchor="middle" letter-spacing="0.3px">K8S WORKER 2</text>
<text x="1620" y="802" font-family="Arial, Helvetica, sans-serif" font-size="11" font-weight="600" fill="#6B7280" text-anchor="middle" letter-spacing="0.3px">20 GB disk · Ekart pod</text>
<text x="1620" y="818" font-family="Arial, Helvetica, sans-serif" font-size="10.5" font-weight="600" fill="#6B7280" text-anchor="middle" letter-spacing="0.3px">NodePort 30000-33000</text>
<path d="M 950 660 L 950 720 L 1300 720 L 1300 735" stroke="#1A1A2E" stroke-width="3" fill="none"  marker-end="url(#arrow)"/>
<path d="M 950 720 L 1620 720 L 1620 735" stroke="#1A1A2E" stroke-width="3" fill="none"  marker-end="url(#arrow)"/>
<path d="M 280 735 C 280 680 950 680 950 735" stroke="#C98A2E" stroke-width="2" fill="none" stroke-dasharray="8 6" marker-end="url(#arrow-amber)"/>
<rect x="467.6" y="662" width="294.8" height="20" rx="0" fill="#FFFFFF"  stroke="none" stroke-width="0" />
<text x="615" y="677" font-family="Arial, Helvetica, sans-serif" font-size="12" font-weight="700" fill="#C98A2E" text-anchor="middle" letter-spacing="0.3px">kubectl apply · :6443 (direct, no ArgoCD)</text>
<path d="M 1080 800 L 1170 800" stroke="#1A1A2E" stroke-width="2" fill="none"  marker-end="url(#arrow)"/>
<path d="M 1080 820 L 1490 820" stroke="#1A1A2E" stroke-width="2" fill="none" stroke-dasharray="8 6" marker-end="url(#arrow)"/>
<path d="M 410 800 L 470 800" stroke="#9AA0AE" stroke-width="2" fill="none"  marker-end="url(#arrow-gray)"/>
<rect x="130" y="1020" width="1640" height="110" rx="10" fill="#F8F9FC"  stroke="#8FA0C7" stroke-width="1.5" />
<text x="150" y="1044" font-family="Arial, Helvetica, sans-serif" font-size="12.5" font-weight="800" fill="#5A6B8C" text-anchor="start" letter-spacing="0.3px">SECURITY GROUPS (Terraform-managed)</text>
<text x="150" y="1066" font-family="Arial, Helvetica, sans-serif" font-size="11" font-weight="600" fill="#6B7280" text-anchor="start" letter-spacing="0.3px">SSH (22) open to 0.0.0.0/0 on every instance — app made reachable from anywhere, per project choice</text>
<text x="150" y="1084" font-family="Arial, Helvetica, sans-serif" font-size="11" font-weight="600" fill="#6B7280" text-anchor="start" letter-spacing="0.3px">Jenkins :8080 and SonarQube :9000 public · Kubernetes NodePort 30000-33000 public · Jenkins SG → Kubernetes SG on :6443 only</text>
<text x="150" y="1102" font-family="Arial, Helvetica, sans-serif" font-size="11" font-weight="600" fill="#6B7280" text-anchor="start" letter-spacing="0.3px">All members of the Kubernetes SG can reach each other on every port (control-plane ↔ workers, Calico, etc.)</text>
<defs><linearGradient id="grad_27AE60" x1="0%" y1="0%" x2="100%" y2="100%">
          <stop offset="0%" stop-color="#27AE60" stop-opacity="1"/>
          <stop offset="100%" stop-color="#27AE60" stop-opacity="0.72"/>
        </linearGradient>
<linearGradient id="grad_64748B" x1="0%" y1="0%" x2="100%" y2="100%">
          <stop offset="0%" stop-color="#64748B" stop-opacity="1"/>
          <stop offset="100%" stop-color="#64748B" stop-opacity="0.72"/>
        </linearGradient>
<linearGradient id="grad_7C5CFF" x1="0%" y1="0%" x2="100%" y2="100%">
          <stop offset="0%" stop-color="#7C5CFF" stop-opacity="1"/>
          <stop offset="100%" stop-color="#7C5CFF" stop-opacity="0.72"/>
        </linearGradient>
<linearGradient id="grad_E0A315" x1="0%" y1="0%" x2="100%" y2="100%">
          <stop offset="0%" stop-color="#E0A315" stop-opacity="1"/>
          <stop offset="100%" stop-color="#E0A315" stop-opacity="0.72"/>
        </linearGradient>
<linearGradient id="grad_EB5C8D" x1="0%" y1="0%" x2="100%" y2="100%">
          <stop offset="0%" stop-color="#EB5C8D" stop-opacity="1"/>
          <stop offset="100%" stop-color="#EB5C8D" stop-opacity="0.72"/>
        </linearGradient>
<linearGradient id="grad_F2994A" x1="0%" y1="0%" x2="100%" y2="100%">
          <stop offset="0%" stop-color="#F2994A" stop-opacity="1"/>
          <stop offset="100%" stop-color="#F2994A" stop-opacity="0.72"/>
        </linearGradient></defs>
</svg>